PathFileType	4	(X/Y/Z)	C:\Users\86182\Documents\cortex\Trimmed_M1_L16.trc
DataRate	CameraRate	NumFrames	NumMarkers	Units	OrigDataRate	OrigDataStartFrame	OrigNumFrames
100.00	100.00	       84	2	mm	100.00	761	       951
Frame#	Time	gripper			box			
		X1	Y1	Z1	X2	Y2	Z2	

761	7.600	204.65675	209.09261	293.72678	229.78003	205.75540	144.83604	
762	7.610	204.65796	209.09367	293.72797	229.81384	205.77440	144.79463	
763	7.620	204.65839	209.09406	293.72836	229.80705	205.77060	144.80289	
764	7.630	204.65831	209.09399	293.72830	229.78680	205.75922	144.82774	
765	7.640	204.65817	209.09387	293.72818	229.79692	205.76491	144.81531	
766	7.650	204.65823	209.09393	293.72824	229.78680	205.75922	144.82774	
767	7.660	204.65849	209.09415	293.72849	229.78680	205.75922	144.82774	
768	7.670	204.65874	209.09438	293.72870	229.81041	205.77248	144.79878	
769	7.680	204.65887	209.09451	293.72885	229.78003	205.75540	144.83604	
770	7.690	204.65903	209.09465	293.72900	229.79358	205.76302	144.81944	
771	7.700	204.65945	209.09503	293.72943	229.78337	205.75729	144.83191	
772	7.710	204.66026	209.09575	293.73019	229.79692	205.76491	144.81531	
773	7.720	204.66122	209.09662	293.73114	229.81718	205.77629	144.79051	
774	7.730	204.66200	209.09732	293.73187	229.76976	205.74965	144.84860	
775	7.740	204.66231	209.09758	293.73218	229.80035	205.76683	144.81116	
776	7.750	204.66194	209.09726	293.73184	229.76976	205.74965	144.84860	
777	7.760	204.66083	209.09625	293.73074	229.81041	205.77248	144.79878	
778	7.770	204.65894	209.09454	293.72891	229.81718	205.77629	144.79051	
779	7.780	204.65649	209.09236	293.72656	229.76976	205.74965	144.84860	
780	7.790	204.65402	209.09013	293.72412	229.83060	205.78383	144.77409	
781	7.800	204.65208	209.08838	293.72226	229.82054	205.77817	144.78641	
782	7.810	204.65103	209.08743	293.72122	229.79358	205.76302	144.81944	
783	7.820	204.65074	209.08717	293.72095	229.82726	205.78194	144.77818	
784	7.830	204.65079	209.08722	293.72101	229.78680	205.75922	144.82774	
785	7.840	204.65076	209.08719	293.72095	229.78680	205.75922	144.82774	
786	7.850	204.65062	209.08707	293.72083	229.78337	205.75729	144.83191	
787	7.860	204.65047	209.08693	293.72067	229.79358	205.76302	144.81944	
788	7.870	204.65031	209.08679	293.72052	229.79358	205.76302	144.81944	
789	7.880	204.65015	209.08664	293.72037	229.77661	205.75348	144.84024	
790	7.890	204.65005	209.08656	293.72028	229.79358	205.76302	144.81944	
791	7.900	204.65015	209.08664	293.72034	229.84387	205.79129	144.75778	
792	7.910	204.65041	209.08688	293.72061	229.78680	205.75922	144.82774	
793	7.920	204.65073	209.08716	293.72092	229.81384	205.77440	144.79463	
794	7.930	204.65102	209.08743	293.72119	229.81384	205.77440	144.79463	
795	7.940	204.65117	209.08755	293.72134	229.80371	205.76871	144.80702	
796	7.950	204.65114	209.08754	293.72131	229.83060	205.78383	144.77409	
797	7.960	204.65106	209.08746	293.72125	229.80035	205.76683	144.81116	
798	7.970	204.65108	209.08748	293.72125	229.81718	205.77629	144.79051	
799	7.980	204.65118	209.08757	293.72137	229.83060	205.78383	144.77409	
800	7.990	204.65126	209.08765	293.72144	229.78680	205.75922	144.82774	
801	8.000	204.65118	209.08757	293.72137	229.82054	205.77817	144.78641	
802	8.010	204.65079	209.08722	293.72101	229.76976	205.74965	144.84860	
803	8.020	204.65015	209.08664	293.72040	229.82054	205.77817	144.78641	
804	8.030	204.64958	209.08614	293.71982	229.79015	205.76109	144.82359	
805	8.040	204.64940	209.08597	293.71964	229.79358	205.76302	144.81944	
806	8.050	204.64981	209.08633	293.72003	229.82390	205.78006	144.78229	
807	8.060	204.65086	209.08728	293.72107	229.81041	205.77248	144.79878	
808	8.070	204.65244	209.08870	293.72260	229.81718	205.77629	144.79051	
809	8.080	204.65411	209.09019	293.72421	229.81384	205.77440	144.79463	
810	8.090	204.65524	209.09122	293.72531	229.77661	205.75348	144.84024	
811	8.100	204.65538	209.09135	293.72546	229.78680	205.75922	144.82774	
812	8.110	204.65453	209.09058	293.72461	229.80705	205.77060	144.80289	
813	8.120	204.65295	209.08916	293.72308	229.81718	205.77629	144.79051	
814	8.130	204.65108	209.08748	293.72125	229.83060	205.78383	144.77409	
815	8.140	204.64943	209.08598	293.71967	229.79015	205.76109	144.82359	
816	8.150	204.64848	209.08514	293.71875	229.80371	205.76871	144.80702	
817	8.160	204.64851	209.08517	293.71878	229.82054	205.77817	144.78641	
818	8.170	204.64941	209.08597	293.71964	229.78003	205.75540	144.83604	
819	8.180	204.65071	209.08716	293.72092	229.77318	205.75157	144.84442	
820	8.190	204.65184	209.08817	293.72202	229.79692	205.76491	144.81531	
821	8.200	204.65233	209.08861	293.72247	229.79692	205.76491	144.81531	
822	8.210	204.65216	209.08846	293.72232	229.81041	205.77248	144.79878	
823	8.220	204.65158	209.08794	293.72174	229.81041	205.77248	144.79878	
824	8.230	204.65108	209.08748	293.72125	229.81718	205.77629	144.79051	
825	8.240	204.65102	209.08743	293.72122	229.81718	205.77629	144.79051	
826	8.250	204.65155	209.08791	293.72174	229.82390	205.78006	144.78229	
827	8.260	204.65250	209.08876	293.72266	229.80705	205.77060	144.80289	
828	8.270	204.65361	209.08977	293.72372	229.82726	205.78194	144.77818	
829	8.280	204.65453	209.09059	293.72461	229.81041	205.77248	144.79878	
830	8.290	204.65489	209.09091	293.72498	229.81384	205.77440	144.79463	
831	8.300	204.65451	209.09058	293.72461	229.79358	205.76302	144.81944	
832	8.310	204.65349	209.08965	293.72360	229.77661	205.75348	144.84024	
833	8.320	204.65219	209.08849	293.72235	229.79358	205.76302	144.81944	
834	8.330	204.65103	209.08743	293.72122	229.80371	205.76871	144.80702	
835	8.340	204.65018	209.08667	293.72040	229.78003	205.75540	144.83604	
836	8.350	204.64963	209.08617	293.71985	229.82390	205.78006	144.78229	
837	8.360	204.64920	209.08580	293.71942	229.77318	205.75157	144.84442	
838	8.370	204.64885	209.08548	293.71909	229.81384	205.77440	144.79463	
839	8.380	204.64862	209.08527	293.71887	229.81384	205.77440	144.79463	
840	8.390	204.64871	209.08536	293.71896	229.80705	205.77060	144.80289	
841	8.400	204.64925	209.08583	293.71948	229.80705	205.77060	144.80289	
842	8.410	204.65005	209.08655	293.72025	229.83388	205.78568	144.77002	
843	8.420	204.65091	209.08733	293.72110	229.82390	205.78006	144.78229	
844	8.430	204.65173	209.08807	293.72189	229.83060	205.78383	144.77409	
